<svg xmlns="http://www.w3.org/2000/svg" width="64" height="86" viewBox="0 0 64 86" fill="none"><path d="M56 32H53.3333V21.3333C53.3333 9.568 43.7653 0 32 0C20.2347 0 10.6667 9.568 10.6667 21.3333V32H8C3.59111 32 0 35.5876 0 40V77.3333C0 81.7458 3.59111 85.3333 8 85.3333H56C60.4089 85.3333 64 81.7458 64 77.3333V40C64 35.5876 60.4089 32 56 32ZM17.7778 21.3333C17.7778 13.4898 24.1564 7.11111 32 7.11111C39.8436 7.11111 46.2222 13.4898 46.2222 21.3333V32H17.7778V21.3333ZM35.5556 59.456V67.5556C35.5556 69.5182 33.9662 71.1111 32 71.1111C30.0338 71.1111 28.4444 69.5182 28.4444 67.5556V59.456C26.3289 58.2222 24.8889 55.9538 24.8889 53.3333C24.8889 49.4116 28.0782 46.2222 32 46.2222C35.9218 46.2222 39.1111 49.4116 39.1111 53.3333C39.1111 55.9538 37.6711 58.2222 35.5556 59.456Z" fill="url(#paint0_linear_88_318)"></path><defs><linearGradient id="paint0_linear_88_318" x1="2.45734" y1="34.6269" x2="65.7046" y2="34.7253" gradientUnits="userSpaceOnUse"><stop stop-color="#C48B41"></stop><stop offset="0.519231" stop-color="#FFECA3"></stop><stop offset="1" stop-color="#D6A650"></stop></linearGradient></defs></svg>