<svg xmlns="http://www.w3.org/2000/svg" width="193" height="64" viewBox="0 0 193 64" fill="none"><path d="M39.5067 24.3596L31.9603 0L24.4146 24.3596H0L19.7534 39.4139L12.2076 63.7768L31.9603 48.716L51.7137 63.7768L44.1679 39.4139L63.9213 24.3596H39.5067Z" fill="url(#paint0_linear_88_316)"></path><path d="M103.599 24.3596L96.0528 0L88.5063 24.3596H64.0918L83.8452 39.4139L76.2994 63.7768L96.0528 48.716L115.806 63.7768L108.26 39.4139L128.013 24.3596H103.599Z" fill="url(#paint1_linear_88_316)"></path><path d="M167.69 24.3596L160.145 0L152.599 24.3596H128.184L147.937 39.4139L140.391 63.7768L160.145 48.716L179.898 63.7768L172.352 39.4139L192.105 24.3596H167.69Z" fill="url(#paint2_linear_88_316)"></path><defs><linearGradient id="paint0_linear_88_316" x1="2.45431" y1="25.8796" x2="65.6236" y2="26.0109" gradientUnits="userSpaceOnUse"><stop stop-color="#C48B41"></stop><stop offset="0.519231" stop-color="#FFECA3"></stop><stop offset="1" stop-color="#D6A650"></stop></linearGradient><linearGradient id="paint1_linear_88_316" x1="66.5461" y1="25.8796" x2="129.715" y2="26.0109" gradientUnits="userSpaceOnUse"><stop stop-color="#C48B41"></stop><stop offset="0.519231" stop-color="#FFECA3"></stop><stop offset="1" stop-color="#D6A650"></stop></linearGradient><linearGradient id="paint2_linear_88_316" x1="130.638" y1="25.8796" x2="193.807" y2="26.0109" gradientUnits="userSpaceOnUse"><stop stop-color="#C48B41"></stop><stop offset="0.519231" stop-color="#FFECA3"></stop><stop offset="1" stop-color="#D6A650"></stop></linearGradient></defs></svg>